# xmcd
#
# Track frame offsets:
# 150
# 16907
# 32059
# 46372
# 60443
# 77099
# 89935
# 106979
# 123666
# 139391
# 155174
# 171332
# 184847
# 198640
# 213471
# 234366
# 246834
# 262751
# 280307
# 297568
#
# Disc length: 4201 seconds
#
#
# Revision: 0
# Processed by: cddbd v1.5.2PL0 Copyright (c) Steve Scherf et al.
# Submitted via: FreeRIP 2.96 
#
DISCID=32106714
DTITLE=RELTON and CRISTIANO - RELTON and CRISTIANO AO VIVO
DYEAR=2007
DGENRE=Country
TTITLE0=ALEM DA RAZAO
TTITLE1=FAZ MAIS UMA VEZ COMIGO
TTITLE2=AINDA ONTEM CHOREI DE SAUDADES
TTITLE3=RODA DE AMIGOS
TTITLE4=NOS BARES DA CIDADE
TTITLE5=MUDA DE VIDA
TTITLE6=GATA DE RUA
TTITLE7=NOI INVERGA MAIS NAO QUEBRA
TTITLE8=PRA QUE CHORAR
TTITLE9=MINHA VIDA SEM ELA
TTITLE10=CARA DE ANJO
TTITLE11=VIDA E SAUDADE
TTITLE12=MUSICA DA SAUDADE
TTITLE13=FESTA ALEGRIA
TTITLE14=DUAS VEZES VOCE - TO POR AI
TTITLE15=O SEU OLHAR E QUE ME DIZ
TTITLE16=ESQUECA QUE EU TE AMO
TTITLE17=AMIGOS CONFIDENTES
TTITLE18=NAO FOI AMOR
TTITLE19=MINUTO E HORA
EXTD=
EXTT0=
EXTT1=
EXTT2=
EXTT3=
EXTT4=
EXTT5=
EXTT6=
EXTT7=
EXTT8=
EXTT9=
EXTT10=
EXTT11=
EXTT12=
EXTT13=
EXTT14=
EXTT15=
EXTT16=
EXTT17=
EXTT18=
EXTT19=
PLAYORDER=
